<svg width="23" height="24" viewBox="0 0 23 24" fill="none" xmlns="http://www.w3.org/2000/svg">
<path d="M15.3728 11.8001C15.4911 12.6324 15.3549 13.4823 14.9835 14.2291C14.6122 14.9759 14.0246 15.5815 13.3044 15.9598C12.5842 16.338 11.768 16.4697 10.972 16.336C10.1759 16.2024 9.44051 15.8102 8.87038 15.2153C8.30025 14.6204 7.9244 13.853 7.79631 13.0223C7.66821 12.1917 7.79439 11.34 8.15689 10.5885C8.51939 9.83696 9.09976 9.22385 9.81544 8.83635C10.5311 8.44885 11.3457 8.3067 12.1432 8.43011C12.9568 8.556 13.71 8.95157 14.2915 9.55842C14.8731 10.1653 15.2522 10.9512 15.3728 11.8001Z" stroke="white" stroke-width="2" stroke-linecap="round" stroke-linejoin="round"/>
<path d="M16.3726 2.38684H6.78929C4.14292 2.38684 1.99762 4.62542 1.99762 7.38684V17.3868C1.99762 20.1483 4.14292 22.3868 6.78929 22.3868H16.3726C19.019 22.3868 21.1643 20.1483 21.1643 17.3868V7.38684C21.1643 4.62542 19.019 2.38684 16.3726 2.38684Z" stroke="white" stroke-width="2" stroke-linecap="round" stroke-linejoin="round"/>
<path d="M16.7708 6.5H16.7808" stroke="white" stroke-width="2" stroke-linecap="round" stroke-linejoin="round"/>
</svg>
