<svg width="21" height="18" viewBox="0 0 21 18" fill="none" xmlns="http://www.w3.org/2000/svg">
<path d="M21 0.0100873C20.0859 0.687685 19.0738 1.20594 18.0027 1.54489C17.4278 0.850227 16.6638 0.357867 15.814 0.134402C14.9642 -0.0890626 14.0695 -0.0328515 13.2511 0.295433C12.4326 0.623718 11.7299 1.20824 11.2378 1.96994C10.7458 2.73163 10.4883 3.63376 10.5 4.55431V5.55744C8.82251 5.60316 7.16031 5.21218 5.66142 4.41933C4.16253 3.62648 2.87348 2.45638 1.90909 1.01323C1.90909 1.01323 -1.90909 10.0415 6.68182 14.054C4.71596 15.4564 2.3741 16.1595 0 16.0603C8.59091 21.076 19.0909 16.0603 19.0909 4.52421C19.09 4.24479 19.0645 3.96606 19.0145 3.69161C19.9888 2.68194 20.6762 1.40717 21 0.0100873Z" fill="#0094FF"/>
</svg>
